<svg width="20" height="20" viewBox="0 0 20 20" fill="none" xmlns="http://www.w3.org/2000/svg">
<path d="M17.6252 8.99968C18.6606 8.99968 19.5 8.16028 19.5 7.12484V7.12484C19.5 6.08939 18.6605 5.25 17.6251 5.25V5.25C16.5895 5.25 15.75 6.08947 15.75 7.125V8.99968H17.6252ZM12.375 8.99968C13.4105 8.99968 14.25 8.16021 14.25 7.12468V1.875C14.25 0.839467 13.4105 0 12.375 0V0C11.3395 0 10.5 0.839466 10.5 1.875V7.12468C10.5 8.16021 11.3395 8.99968 12.375 8.99968V8.99968Z" fill="#2EB67D"/>
<path d="M1.87484 10.5003C0.839394 10.5003 7.15256e-07 11.3397 7.15256e-07 12.3752V12.3752C7.15256e-07 13.4106 0.839475 14.25 1.87492 14.25V14.25C2.91045 14.25 3.75 13.4105 3.75 12.375V10.5003H1.87484ZM7.125 10.5003C6.08947 10.5003 5.25 11.3398 5.25 12.3753V17.625C5.25 18.6605 6.08947 19.5 7.125 19.5V19.5C8.16053 19.5 9 18.6605 9 17.625V12.3753C9 11.3398 8.16053 10.5003 7.125 10.5003V10.5003Z" fill="#E01E5A"/>
<path d="M10.5001 17.6252C10.5001 18.6606 11.3395 19.5 12.3749 19.5V19.5C13.4104 19.5 14.2498 18.6605 14.2498 17.6251V17.6251C14.2498 16.5895 13.4103 15.75 12.3748 15.75L10.5001 15.75L10.5001 17.6252ZM10.5001 12.375C10.5001 13.4105 11.3395 14.25 12.3751 14.25L17.6248 14.25C18.6603 14.25 19.4998 13.4105 19.4998 12.375V12.375C19.4998 11.3395 18.6603 10.5 17.6248 10.5L12.3751 10.5C11.3395 10.5 10.5001 11.3395 10.5001 12.375V12.375Z" fill="#ECB22E"/>
<path d="M8.9998 1.87484C8.9998 0.839394 8.16041 3.56697e-07 7.12496 3.11437e-07V3.11437e-07C6.08952 2.66176e-07 5.25012 0.839475 5.25012 1.87492V1.87492C5.25012 2.91045 6.08959 3.75 7.12512 3.75L8.9998 3.75L8.9998 1.87484ZM8.9998 7.125C8.9998 6.08947 8.16033 5.25 7.1248 5.25L1.87512 5.25C0.839589 5.25 0.000122198 6.08947 0.000122152 7.125V7.125C0.000122107 8.16053 0.839588 9 1.87512 9L7.1248 9C8.16033 9 8.9998 8.16053 8.9998 7.125V7.125Z" fill="#36C5F0"/>
</svg>
